<svg xmlns="http://www.w3.org/2000/svg" viewBox="0 0 100 100">
  <defs>
    <linearGradient id="rkGrad" x1="0%" y1="0%" x2="100%" y2="100%">
      <stop offset="0%" style="stop-color:#16a34a;stop-opacity:1" />
      <stop offset="100%" style="stop-color:#22c55e;stop-opacity:1" />
    </linearGradient>
  </defs>
  
  <!-- Background Circle with Leaf Green Gradient -->
  <circle cx="50" cy="50" r="48" fill="url(#rkGrad)"/>
  
  <!-- Leaf Shape -->
  <path d="M 50 25 Q 60 25 65 35 Q 70 45 68 55 Q 66 65 58 70 Q 50 75 42 70 Q 34 65 32 55 Q 30 45 35 35 Q 40 25 50 25 Z" 
        fill="white" 
        opacity="0.9"/>
  
  <!-- Leaf Vein -->
  <path d="M 50 30 L 50 68" 
        stroke="url(#rkGrad)" 
        stroke-width="2" 
        fill="none"/>
  
  <!-- Small Veins -->
  <path d="M 50 40 Q 45 42 42 45" 
        stroke="url(#rkGrad)" 
        stroke-width="1.5" 
        fill="none"
        opacity="0.7"/>
  <path d="M 50 50 Q 45 52 43 55" 
        stroke="url(#rkGrad)" 
        stroke-width="1.5" 
        fill="none"
        opacity="0.7"/>
  <path d="M 50 40 Q 55 42 58 45" 
        stroke="url(#rkGrad)" 
        stroke-width="1.5" 
        fill="none"
        opacity="0.7"/>
  <path d="M 50 50 Q 55 52 57 55" 
        stroke="url(#rkGrad)" 
        stroke-width="1.5" 
        fill="none"
        opacity="0.7"/>
</svg>
